<svg xmlns="http://www.w3.org/2000/svg" width="256" height="256" viewBox="0 0 100 100"><rect width="100" height="100" rx="20" fill="#2a2e39"></rect><path fill="#ddaf94" d="M31.82 60.37L31.82 60.37Q31.33 60.72 30.51 61.01Q29.69 61.29 28.70 61.29L28.70 61.29Q27.56 61.29 26.68 60.93Q25.79 60.58 25.43 59.80L25.43 59.80Q21.60 51.85 18.83 45.24Q16.06 38.64 14.36 34.31L14.36 34.31L14.07 34.31Q13.86 39.63 13.61 44.21Q13.36 48.79 13.08 53.16Q12.80 57.53 12.51 62.00Q12.23 66.47 11.94 71.58L11.94 71.58Q11.52 71.73 10.84 71.87Q10.17 72.01 9.39 72.01L9.39 72.01Q7.83 72.01 7.19 71.37Q6.55 70.73 6.55 69.53L6.55 69.53Q6.55 68.81 6.65 66.47Q6.76 64.13 6.97 60.79Q7.19 57.45 7.44 53.41Q7.68 49.36 8.00 45.17Q8.32 40.98 8.64 36.94Q8.96 32.89 9.25 29.55L9.25 29.55Q9.81 29.05 10.88 28.63Q11.94 28.20 13.29 28.20L13.29 28.20Q16.56 28.20 17.84 30.83L17.84 30.83Q19.19 33.60 20.57 36.69Q21.95 39.78 23.34 42.97Q24.72 46.17 26.04 49.29Q27.35 52.41 28.56 55.25L28.56 55.25L28.84 55.25Q30.40 51.49 31.97 47.83Q33.53 44.18 35.02 40.77Q36.51 37.36 37.86 34.38Q39.21 31.40 40.27 28.91L40.27 28.91Q40.91 28.56 41.91 28.38Q42.90 28.20 43.75 28.20L43.75 28.20Q47.09 28.20 47.59 30.48L47.59 30.48Q47.87 31.75 48.23 34.70Q48.58 37.65 48.93 41.48Q49.29 45.31 49.61 49.72Q49.93 54.12 50.21 58.20Q50.50 62.28 50.71 65.73Q50.92 69.17 51.06 71.16L51.06 71.16Q49.79 72.01 48.08 72.01L48.08 72.01Q47.02 72.01 46.20 71.48Q45.38 70.95 45.24 69.53L45.24 69.53Q44.89 64.34 44.60 59.23Q44.32 54.12 44.07 49.50Q43.82 44.89 43.61 41.02Q43.40 37.15 43.25 34.45L43.25 34.45L42.97 34.45Q42.19 36.44 41.16 38.92Q40.13 41.41 38.75 44.53Q37.36 47.66 35.66 51.60Q33.95 55.54 31.82 60.37ZM93.45 30.40L93.45 30.40Q93.45 31.19 92.39 33.42Q91.32 35.66 89.41 38.99Q87.49 42.33 84.83 46.59Q82.16 50.85 78.97 55.61L78.97 55.61L78.97 71.44Q78.61 71.58 77.87 71.76Q77.12 71.94 76.34 71.94L76.34 71.94Q73.22 71.94 73.22 69.31L73.22 69.31L73.22 55.61Q71.23 52.70 69.13 49.43Q67.04 46.17 64.98 42.83Q62.92 39.49 61.08 36.30Q59.23 33.10 57.81 30.26L57.81 30.26Q58.09 29.48 58.87 28.74Q59.66 27.99 60.93 27.99L60.93 27.99Q62.28 27.99 63.03 28.70Q63.77 29.41 64.55 30.83L64.55 30.83Q65.69 32.82 67.22 35.52Q68.74 38.21 70.34 40.98Q71.94 43.75 73.43 46.34Q74.92 48.94 75.99 50.64L75.99 50.64L76.27 50.64Q79.96 44.46 82.84 39.14Q85.71 33.81 88.55 28.49L88.55 28.49Q88.98 28.20 89.58 28.10Q90.19 27.99 90.75 27.99L90.75 27.99Q93.45 27.99 93.45 30.40Z"></path></svg>